<svg width="24" height="24" viewBox="0 0 24 24" fill="none" xmlns="http://www.w3.org/2000/svg">
<path d="M7.77194 2.43905L8.84894 2.09505C9.85694 1.77305 10.9349 2.29405 11.3669 3.31205L12.2269 5.34005C12.6019 6.22305 12.3939 7.26205 11.7129 7.90805L9.81994 9.70605C9.93694 10.7821 10.2979 11.8411 10.9039 12.8831C11.4798 13.8912 12.252 14.7736 13.1749 15.4781L15.4509 14.7181C16.3129 14.4311 17.2519 14.7621 17.7809 15.5391L19.0129 17.3491C19.6289 18.2531 19.5179 19.4991 18.7549 20.2651L17.9369 21.0861C17.1229 21.9031 15.9609 22.2001 14.8849 21.8641C12.3459 21.0721 10.0119 18.7211 7.88194 14.8111C5.74894 10.8951 4.99694 7.57105 5.62394 4.84305C5.88794 3.69505 6.70594 2.78005 7.77394 2.43905H7.77194Z" fill="black"/>
</svg>
