<svg width="122" height="122" viewBox="0 0 122 122" fill="none" xmlns="http://www.w3.org/2000/svg">
<path d="M60.751 91.4606C43.8183 91.4606 30.0419 77.6856 30.0419 60.7515C30.0419 43.8188 43.8183 30.0425 60.751 30.0425C77.685 30.0425 91.4601 43.8188 91.4601 60.7515C91.4601 77.6856 77.685 91.4606 60.751 91.4606Z" fill="#96ABDC"/>
<path d="M52.2754 24.1809C51.8855 24.1809 51.5103 24.0114 51.254 23.7056C50.9349 23.3264 50.8521 22.8017 51.039 22.3424L59.5147 1.50027C59.719 0.998246 60.2077 0.668457 60.7511 0.668457C61.2945 0.668457 61.7832 0.998246 61.9875 1.50027L70.4645 22.3424C70.6514 22.8017 70.5673 23.3264 70.2482 23.7056C69.9304 24.0848 69.4257 24.2584 68.9424 24.1502C63.5416 22.9739 57.9566 22.9739 52.5585 24.1502C52.465 24.1716 52.3702 24.1809 52.2754 24.1809Z" fill="#96ABDC"/>
<path d="M60.7511 120.834C60.2077 120.834 59.719 120.506 59.5147 120.003L51.039 99.1604C50.8521 98.7011 50.9349 98.1764 51.254 97.7972C51.5731 97.418 52.0751 97.2471 52.5598 97.3526C57.9579 98.5302 63.543 98.5302 68.9438 97.3526C69.4284 97.2458 69.9318 97.4194 70.2496 97.7972C70.5687 98.1751 70.6528 98.7011 70.4659 99.1604L61.9888 120.003C61.7832 120.506 61.2945 120.834 60.7511 120.834Z" fill="#96ABDC"/>
<path d="M22.8454 70.5636C22.6758 70.5636 22.5049 70.5315 22.342 70.4661L1.49991 61.9891C0.99788 61.7834 0.668091 61.2948 0.668091 60.7513C0.668091 60.2079 0.99788 59.7193 1.50124 59.515L22.3434 51.0393C22.8013 50.8523 23.3274 50.9351 23.7066 51.2542C24.0858 51.5733 24.2567 52.0767 24.1512 52.56C23.5624 55.2584 23.2633 58.0156 23.2633 60.7513C23.2633 63.4871 23.5624 66.2429 24.1512 68.944C24.2567 69.4273 24.0858 69.9307 23.7066 70.2498C23.4609 70.4567 23.1551 70.5636 22.8454 70.5636Z" fill="#96ABDC"/>
<path d="M98.6567 70.5636C98.3483 70.5636 98.0412 70.4567 97.7969 70.2498C97.4177 69.932 97.2468 69.4287 97.3523 68.944C97.9398 66.2443 98.2388 63.4871 98.2388 60.7513C98.2388 58.0156 97.9398 55.2584 97.3523 52.56C97.2468 52.0767 97.4177 51.5733 97.7969 51.2542C98.1747 50.9351 98.6995 50.8523 99.1601 51.0393L120.002 59.515C120.506 59.7193 120.834 60.2079 120.834 60.7513C120.834 61.2948 120.506 61.7834 120.002 61.9877L99.1601 70.4648C98.9972 70.5302 98.8263 70.5636 98.6567 70.5636Z" fill="#96ABDC"/>
<path d="M27.9552 41.2779C27.9178 41.2779 27.8791 41.2766 27.8417 41.2726C27.3477 41.2298 26.9178 40.9174 26.7255 40.4621L17.9814 19.7308C17.7705 19.2301 17.884 18.652 18.2672 18.2675C18.6517 17.8829 19.2312 17.7721 19.7305 17.9817L40.4618 26.7258C40.9184 26.9181 41.2309 27.348 41.2722 27.8407C41.315 28.3347 41.08 28.8114 40.6634 29.0784C38.3362 30.5725 36.1772 32.3095 34.2425 34.2429C32.3092 36.1775 30.5708 38.3365 29.0781 40.6637C28.8311 41.0483 28.4065 41.2779 27.9552 41.2779Z" fill="#96ABDC"/>
<path d="M102.291 103.627C102.116 103.627 101.94 103.593 101.772 103.522L81.0418 94.7784C80.5851 94.5848 80.2727 94.1549 80.2313 93.6622C80.1886 93.1682 80.4236 92.6915 80.8402 92.4232C83.17 90.9264 85.3304 89.188 87.2597 87.2587C89.189 85.3307 90.9274 83.1691 92.4242 80.8392C92.6925 80.4226 93.1625 80.1863 93.6632 80.2303C94.1559 80.2717 94.5858 80.5855 94.7794 81.0408L103.523 101.771C103.733 102.271 103.621 102.851 103.236 103.234C102.98 103.492 102.638 103.627 102.291 103.627Z" fill="#96ABDC"/>
<path d="M93.5471 41.2764C93.0945 41.2764 92.6712 41.0481 92.4229 40.6636C90.9261 38.3324 89.1877 36.1734 87.2584 34.2427C85.3264 32.3107 83.1661 30.5723 80.8389 29.0783C80.421 28.8112 80.1873 28.3346 80.23 27.8405C80.2714 27.3465 80.5852 26.9179 81.0405 26.7257L101.77 17.9816C102.268 17.7706 102.849 17.8828 103.234 18.2673C103.618 18.6519 103.73 19.23 103.521 19.7307L94.7768 40.462C94.5832 40.9186 94.1533 41.231 93.6606 41.2724C93.6232 41.2751 93.5858 41.2764 93.5471 41.2764Z" fill="#96ABDC"/>
<path d="M19.2096 103.627C18.8625 103.627 18.5207 103.49 18.2657 103.235C17.8811 102.851 17.7676 102.273 17.9799 101.772L26.724 81.042C26.9163 80.5854 27.3462 80.2729 27.8389 80.2316C28.3329 80.1741 28.8096 80.4238 29.0766 80.8404C30.5707 83.1663 32.3091 85.3266 34.2411 87.2599C36.1717 89.1906 38.3307 90.9277 40.6619 92.4244C41.0785 92.6928 41.3135 93.1694 41.2708 93.6634C41.228 94.1561 40.9156 94.586 40.4603 94.7796L19.729 103.524C19.5608 103.593 19.3859 103.627 19.2096 103.627Z" fill="#96ABDC"/>
</svg>
